<svg width="185" height="40" viewBox="0 0 185 40" fill="none" xmlns="http://www.w3.org/2000/svg">
<path d="M38.6093 0.821917V39.1781H28.984V18.5205L19.7913 33.9178H18.818L9.67937 18.5753V39.1781H0V0.821917H9.67937L19.3047 17.2055L28.984 0.821917H38.6093Z" fill="white"/>
<path d="M77.067 34.2466C73.2457 38.0822 68.5592 40 63.0076 40C57.4559 40 52.7514 38.0822 48.8941 34.2466C45.0728 30.3744 43.1622 25.6256 43.1622 20C43.1622 14.3744 45.0728 9.64384 48.8941 5.80822C52.7514 1.93607 57.4559 0 63.0076 0C68.5592 0 73.2457 1.93607 77.067 5.80822C80.9243 9.64384 82.853 14.3744 82.853 20C82.853 25.6256 80.9243 30.3744 77.067 34.2466ZM55.7075 27.5068C57.6542 29.4429 60.0875 30.411 63.0076 30.411C65.9276 30.411 68.361 29.4429 70.3076 27.5068C72.2543 25.5342 73.2277 23.032 73.2277 20C73.2277 16.968 72.2543 14.484 70.3076 12.5479C68.361 10.5753 65.9276 9.58904 63.0076 9.58904C60.0875 9.58904 57.6542 10.5753 55.7075 12.5479C53.7608 14.484 52.7874 16.968 52.7874 20C52.7874 23.032 53.7608 25.5342 55.7075 27.5068Z" fill="white"/>
<path d="M108.216 0.821917H117.841V39.1781H110.379L97.0226 19.8904V39.1781H87.3433V0.821917H94.8597L108.216 20.1096V0.821917Z" fill="white"/>
<path d="M133.512 29.9726H148.167V39.1781H123.833V0.821917H147.896V9.9726H133.512V15.2877H146.544V24.3288H133.512V29.9726Z" fill="white"/>
<path d="M185 0.821917L172.238 24.4384V39.1781H162.559V24.5479L149.797 0.821917H160.666L167.372 15.0137L174.131 0.821917H185Z" fill="white"/>
</svg>
